<svg xmlns="http://www.w3.org/2000/svg" viewBox="0 0 24 24" width="24" height="24" color="white" fill="none">
    <path fill-rule="evenodd" clip-rule="evenodd" d="M3.77 20.87C5.38 22.25 7.59 22.25 12 22.25C16.4 22.25 18.62 22.25 20.23 20.87C20.48 20.66 20.69 20.46 20.87 20.24C22.25 18.62 22.25 16.41 22.25 12C22.25 7.59 22.25 5.38001 20.87 3.76001C20.69 3.55001 20.48 3.34 20.23 3.13C18.62 1.75 16.4 1.75 12 1.75C7.6 1.75 5.38 1.75 3.77 3.13C3.52 3.34 3.31 3.54001 3.13 3.76001C1.75 5.38001 1.75 7.58999 1.75 12V12V12C1.75 16.41 1.75 18.62 3.13 20.24C3.31 20.45 3.52 20.66 3.77 20.87ZM4.74 4.27002C5.93 3.25002 7.96 3.25 12 3.25C16.04 3.25 18.07 3.25002 19.26 4.27002C19.43 4.41002 19.59 4.55998 19.73 4.72998C20.75 5.92998 20.75 7.95999 20.75 11.99C20.75 13.0057 20.75 13.8943 20.7337 14.6746L19.0599 13.0009C18.0999 12.0309 16.3999 12.0309 15.4399 13.0009L13.9999 14.4409L10.5599 11.0009C9.59994 10.0309 7.89994 10.0309 6.93994 11.0009L3.26612 14.6747C3.25 13.8968 3.25 13.0114 3.25 12V12V12C3.25 7.96999 3.25 5.93999 4.27 4.73999C4.41 4.56999 4.57 4.41002 4.74 4.27002ZM3.3731 16.6505C3.42939 16.6185 3.48224 16.5787 3.52994 16.531L7.99994 12.061C8.39994 11.661 9.09994 11.661 9.49994 12.061L14.9699 17.531C15.1199 17.681 15.3099 17.7509 15.4999 17.7509C15.6899 17.7509 15.8799 17.681 16.0299 17.531C16.3199 17.241 16.3199 16.7609 16.0299 16.4709L15.0599 15.5009L16.4999 14.061C16.8999 13.661 17.5999 13.661 17.9999 14.061L20.4699 16.531C20.5174 16.5784 20.5699 16.6181 20.6259 16.65C20.4995 17.828 20.2446 18.6446 19.73 19.25C19.59 19.42 19.43 19.58 19.26 19.72C18.07 20.74 16.04 20.74 12 20.74C7.96 20.74 5.93 20.74 4.74 19.72C4.57 19.58 4.41 19.43 4.27 19.26C3.75406 18.653 3.49909 17.8337 3.3731 16.6505ZM15.5 8.75C16.1904 8.75 16.75 8.19036 16.75 7.5C16.75 6.80964 16.1904 6.25 15.5 6.25C14.8096 6.25 14.25 6.80964 14.25 7.5C14.25 8.19036 14.8096 8.75 15.5 8.75Z" fill="#141B34" />
</svg>