<svg xmlns="http://www.w3.org/2000/svg" viewBox="0 0 24 24" width="24" height="24" color="white" fill="none">
    <defs />
    <path fill="#141B34" d="M11.998,3.25 C11.624,3.25 11.277,3.416 11.017,3.573 C10.736,3.742 10.446,3.969 10.164,4.219 C9.597,4.72 8.988,5.374 8.437,6.008 C7.883,6.646 7.373,7.282 7.002,7.757 C6.816,7.995 6.665,8.194 6.559,8.333 C6.507,8.403 6.465,8.458 6.437,8.496 L6.405,8.539 L6.396,8.551 L6.393,8.555 C6.148,8.888 6.219,9.358 6.552,9.604 C6.886,9.849 7.355,9.778 7.601,9.445 L7.61,9.432 L7.64,9.392 C7.666,9.357 7.706,9.304 7.756,9.237 C7.857,9.103 8.004,8.911 8.184,8.68 C8.545,8.218 9.038,7.604 9.569,6.992 C10.104,6.376 10.663,5.78 11.157,5.343 C11.188,5.316 11.219,5.289 11.249,5.263 L11.249,20 C11.249,20.414 11.585,20.75 11.999,20.75 C12.413,20.75 12.749,20.414 12.749,20 L12.749,5.266 C12.778,5.291 12.808,5.317 12.838,5.343 C13.332,5.78 13.891,6.376 14.426,6.992 C14.957,7.604 15.45,8.218 15.811,8.68 C15.991,8.911 16.138,9.103 16.239,9.237 C16.29,9.304 16.329,9.357 16.355,9.392 L16.385,9.432 L16.394,9.445 C16.64,9.778 17.11,9.849 17.443,9.604 C17.776,9.358 17.847,8.888 17.602,8.555 L17.599,8.551 L17.59,8.539 L17.558,8.496 C17.53,8.458 17.488,8.403 17.436,8.333 C17.331,8.194 17.179,7.995 16.993,7.757 C16.623,7.282 16.112,6.646 15.558,6.008 C15.007,5.374 14.398,4.72 13.831,4.219 C13.549,3.969 13.259,3.742 12.978,3.573 C12.719,3.417 12.375,3.252 12.004,3.25" />
</svg>